<svg width="15" height="15" viewBox="0 0 15 15" fill="none" xmlns="http://www.w3.org/2000/svg">
<path d="M9.16667 1.66667C8.94565 1.66667 8.73369 1.57887 8.57741 1.42259C8.42113 1.26631 8.33333 1.05435 8.33333 0.833333C8.33333 0.61232 8.42113 0.400358 8.57741 0.244078C8.73369 0.0877973 8.94565 0 9.16667 0H14.1667C14.3877 0 14.5996 0.0877973 14.7559 0.244078C14.9122 0.400358 15 0.61232 15 0.833333V5.83333C15 6.05435 14.9122 6.26631 14.7559 6.42259C14.5996 6.57887 14.3877 6.66667 14.1667 6.66667C13.9457 6.66667 13.7337 6.57887 13.5774 6.42259C13.4211 6.26631 13.3333 6.05435 13.3333 5.83333V2.845L5.58917 10.5892C5.432 10.741 5.2215 10.825 5.003 10.8231C4.7845 10.8212 4.57549 10.7335 4.42098 10.579C4.26648 10.4245 4.17884 10.2155 4.17694 9.997C4.17504 9.7785 4.25904 9.568 4.41083 9.41083L12.155 1.66667H9.16667ZM0 3.33333C0 2.89131 0.175595 2.46738 0.488155 2.15482C0.800716 1.84226 1.22464 1.66667 1.66667 1.66667H5.83333C6.05435 1.66667 6.26631 1.75446 6.42259 1.91074C6.57887 2.06702 6.66667 2.27899 6.66667 2.5C6.66667 2.72101 6.57887 2.93298 6.42259 3.08926C6.26631 3.24554 6.05435 3.33333 5.83333 3.33333H1.66667V13.3333H11.6667V9.16667C11.6667 8.94565 11.7545 8.73369 11.9107 8.57741C12.067 8.42113 12.279 8.33333 12.5 8.33333C12.721 8.33333 12.933 8.42113 13.0893 8.57741C13.2455 8.73369 13.3333 8.94565 13.3333 9.16667V13.3333C13.3333 13.7754 13.1577 14.1993 12.8452 14.5118C12.5326 14.8244 12.1087 15 11.6667 15H1.66667C1.22464 15 0.800716 14.8244 0.488155 14.5118C0.175595 14.1993 0 13.7754 0 13.3333V3.33333Z" fill="#7C7C7C"/>
</svg>
