<svg width="20" height="18" viewBox="0 0 20 18" fill="none" xmlns="http://www.w3.org/2000/svg">
<path d="M20 2.79728C19.2645 3.12319 18.4744 3.34339 17.6438 3.44293C18.4911 2.93557 19.1412 2.1305 19.4477 1.17216C18.655 1.64252 17.7768 1.98428 16.8422 2.16749C16.0935 1.37123 15.0277 0.872681 13.8474 0.872681C11.582 0.872681 9.74456 2.71008 9.74456 4.97732C9.74456 5.29795 9.78155 5.60976 9.85026 5.911C6.43883 5.73924 3.41672 4.10531 1.39258 1.62314C1.04025 2.23091 0.837663 2.93557 0.837663 3.68604C0.837663 5.10945 1.56258 6.36639 2.66273 7.10187C1.98978 7.07985 1.35735 6.89576 0.804191 6.58835V6.6412C0.804191 8.62922 2.21792 10.2878 4.09583 10.6648C3.75055 10.7582 3.38853 10.8075 3.01506 10.8075C2.75081 10.8075 2.49273 10.7828 2.24258 10.7353C2.76491 12.3648 4.27993 13.5521 6.07593 13.5839C4.67101 14.6849 2.90144 15.3411 0.979476 15.3411C0.648285 15.3411 0.321499 15.3217 0 15.2838C1.81626 16.4492 3.97252 17.1274 6.28909 17.1274C13.8377 17.1274 17.9644 10.8753 17.9644 5.45297C17.9644 5.27681 17.96 5.09888 17.9521 4.92271C18.7536 4.34313 19.4495 3.62174 19.9982 2.79993L20 2.79728Z" fill="white"/>
</svg>
