<svg width="15" height="16" viewBox="0 0 15 16" fill="none" xmlns="http://www.w3.org/2000/svg">
<path d="M9.16667 2.16667C8.94565 2.16667 8.73369 2.07887 8.57741 1.92259C8.42113 1.76631 8.33333 1.55435 8.33333 1.33333C8.33333 1.11232 8.42113 0.900358 8.57741 0.744078C8.73369 0.587797 8.94565 0.5 9.16667 0.5H14.1667C14.3877 0.5 14.5996 0.587797 14.7559 0.744078C14.9122 0.900358 15 1.11232 15 1.33333V6.33333C15 6.55435 14.9122 6.76631 14.7559 6.92259C14.5996 7.07887 14.3877 7.16667 14.1667 7.16667C13.9457 7.16667 13.7337 7.07887 13.5774 6.92259C13.4211 6.76631 13.3333 6.55435 13.3333 6.33333V3.345L5.58917 11.0892C5.432 11.241 5.2215 11.325 5.003 11.3231C4.7845 11.3212 4.57549 11.2335 4.42098 11.079C4.26648 10.9245 4.17884 10.7155 4.17694 10.497C4.17504 10.2785 4.25904 10.068 4.41083 9.91083L12.155 2.16667H9.16667ZM0 3.83333C0 3.39131 0.175595 2.96738 0.488155 2.65482C0.800716 2.34226 1.22464 2.16667 1.66667 2.16667H5.83333C6.05435 2.16667 6.26631 2.25446 6.42259 2.41074C6.57887 2.56702 6.66667 2.77899 6.66667 3C6.66667 3.22101 6.57887 3.43298 6.42259 3.58926C6.26631 3.74554 6.05435 3.83333 5.83333 3.83333H1.66667V13.8333H11.6667V9.66667C11.6667 9.44565 11.7545 9.23369 11.9107 9.07741C12.067 8.92113 12.279 8.83333 12.5 8.83333C12.721 8.83333 12.933 8.92113 13.0893 9.07741C13.2455 9.23369 13.3333 9.44565 13.3333 9.66667V13.8333C13.3333 14.2754 13.1577 14.6993 12.8452 15.0118C12.5326 15.3244 12.1087 15.5 11.6667 15.5H1.66667C1.22464 15.5 0.800716 15.3244 0.488155 15.0118C0.175595 14.6993 0 14.2754 0 13.8333V3.83333Z" fill="white"/>
</svg>
